<svg xmlns="http://www.w3.org/2000/svg" viewBox="0 0 260 520" fill="none">
  <g opacity="0.92">
    <path d="M137 18 184 48 209 107 198 180 166 231 158 319 218 398 245 506H46l24-111 37-78-6-77-39-52-24-75 25-74Z" fill="rgba(255,255,255,0.055)" stroke="rgba(255,255,255,0.22)" stroke-width="2"/>
    <path d="M137 18 63 39 184 48 101 240 198 180 70 395 158 319 245 506 M38 113 209 107 62 188 166 231 46 506 M107 317 218 398 70 395 M63 39 38 113 101 240 107 317 46 506 M184 48 198 180 166 231 158 319" stroke="rgba(255,255,255,0.34)" stroke-width="1.7"/>
    <path d="M100 240 136 250 166 231 M107 317 141 330 158 319 M70 395 136 377 218 398 M62 188 118 174 198 180 M38 113 112 118 209 107 M63 39 137 18 184 48" stroke="rgba(255,255,255,0.18)" stroke-width="1.4"/>
    <circle cx="137" cy="18" r="3" fill="rgba(255,255,255,0.42)"/>
    <circle cx="101" cy="240" r="3" fill="rgba(255,255,255,0.36)"/>
    <circle cx="166" cy="231" r="3" fill="rgba(255,255,255,0.36)"/>
    <circle cx="158" cy="319" r="3" fill="rgba(255,255,255,0.30)"/>
    <circle cx="70" cy="395" r="3" fill="rgba(255,255,255,0.28)"/>
  </g>
</svg>
